<?xml version="1.0" encoding="UTF-8"?>
<svg version="1.1" xmlns="http://www.w3.org/2000/svg" width="360" height="360">
<path d="M0 0 C118.8 0 237.6 0 360 0 C360 118.8 360 237.6 360 360 C241.2 360 122.4 360 0 360 C0 241.2 0 122.4 0 0 Z " fill="#FEFEFE" transform="translate(0,0)"/>
<path d="M0 0 C0.05027161 4.30092956 0.08612107 8.60169343 0.10986328 12.90283203 C0.1197839 14.35924262 0.13332468 15.81563407 0.15087891 17.27197266 C0.26579318 27.06672432 -0.30258373 36.32262225 -2 46 C-0.63681641 45.22076172 -0.63681641 45.22076172 0.75390625 44.42578125 C19.43871264 33.96580563 38.70284645 29.75595771 60 29 C58.30337183 33.86816607 55.6887345 38.0705001 53 42.4375 C52.51160645 43.2315625 52.02321289 44.025625 51.52001953 44.84375 C45.12312373 55.13827008 38.36418834 64.89029382 30.07421875 73.7734375 C28.18675832 75.79952496 26.40379289 77.87896905 24.625 80 C9.69233937 96.97823058 -11.98398306 111.85638373 -34.91796875 114.3125 C-56.21494014 115.21276828 -74.81857019 102.07129658 -90.0625 88.625 C-91.71652718 87.09212768 -93.36222316 85.55022273 -95 84 C-95.86109375 83.20335937 -96.7221875 82.40671875 -97.609375 81.5859375 C-108.98379007 70.70463291 -117.92569662 58.0554852 -126.25 44.75 C-126.81122559 43.85684082 -127.37245117 42.96368164 -127.95068359 42.04345703 C-128.46711426 41.19895996 -128.98354492 40.35446289 -129.515625 39.484375 C-129.97227539 38.73897461 -130.42892578 37.99357422 -130.89941406 37.22558594 C-132.08951228 34.81898981 -132.5894518 32.64355826 -133 30 C-111.37656187 28.83640692 -91.53813644 35.01443766 -73 46 C-73.0714624 45.17935059 -73.1429248 44.35870117 -73.21655273 43.51318359 C-73.9632024 34.19212659 -74.12079112 24.96917582 -74.0625 15.625 C-74.05746589 14.1953141 -74.05290643 12.76562645 -74.04882812 11.3359375 C-74.03799465 7.89058755 -74.02083984 4.44530573 -74 1 C-58.98064934 6.78262805 -46.74218732 21.6802833 -37 34 C-36.5153125 33.38253906 -36.030625 32.76507813 -35.53125 32.12890625 C-27.71563155 22.25417294 -19.98495685 13.73870386 -10 6 C-8.80697266 5.06027344 -8.80697266 5.06027344 -7.58984375 4.1015625 C-2.28477113 0 -2.28477113 0 0 0 Z " fill="#E15937" transform="translate(213,89)"/>
<path d="M0 0 C0.02483101 4.44742458 0.04292183 8.89481178 0.05493164 13.34228516 C0.05994162 14.85336002 0.06675144 16.36443009 0.07543945 17.87548828 C0.08765176 20.05502512 0.09326178 22.23449753 0.09765625 24.4140625 C0.10289307 25.7232666 0.10812988 27.0324707 0.11352539 28.38134766 C0.00964539 31.69255059 -0.41539361 34.74677095 -1 38 C-0.859748 39.50269996 -0.69520269 41.00344606 -0.5 42.5 C-0.47265625 44.84765625 -0.47265625 44.84765625 -1 47 C-2.98522158 48.83782694 -5.08617973 50.0230258 -7.4296875 51.37109375 C-23.26611617 61.40724991 -30.93730647 83.73355251 -35 101 C-35.7150662 104.32505782 -36.38330632 107.65534371 -37 111 C-37.33 111 -37.66 111 -38 111 C-38.14695313 110.12601562 -38.29390625 109.25203125 -38.4453125 108.3515625 C-42.25004016 87.49115913 -49.03974098 67.76323959 -65 53 C-65.59167969 52.63519531 -66.18335938 52.27039063 -66.79296875 51.89453125 C-70.15441727 49.6420142 -71.76387157 47.95419047 -72.7565918 43.94262695 C-73.91172947 34.43838613 -74.24512459 25.13053716 -74.125 15.5625 C-74.11492845 14.13737623 -74.10581014 12.7122454 -74.09765625 11.28710938 C-74.07602292 7.85792154 -74.04173497 4.42900933 -74 1 C-58.98064934 6.78262805 -46.74218732 21.6802833 -37 34 C-36.27296875 33.07380859 -36.27296875 33.07380859 -35.53125 32.12890625 C-27.71563155 22.25417294 -19.98495685 13.73870386 -10 6 C-8.80697266 5.06027344 -8.80697266 5.06027344 -7.58984375 4.1015625 C-2.28477113 0 -2.28477113 0 0 0 Z " fill="#EC9218" transform="translate(213,89)"/>
<path d="M0 0 C21.05428702 -1.13296612 42.23681821 4.45844026 60 16 C62.51802607 19.34749348 62.8962725 23.71150962 63.75 27.75 C67.89745376 46.07627863 75.02160506 63.86476095 88.5456543 77.28417969 C89.74329634 78.47817888 90.87763502 79.73497929 92 81 C92 81.99 92 82.98 92 84 C72.09790965 81.37511801 55.43931353 70.40762694 41 57 C40.4342627 56.47809082 39.86852539 55.95618164 39.28564453 55.41845703 C26.34917343 43.34802584 16.1255404 29.71482979 6.75 14.75 C5.90779907 13.40989868 5.90779907 13.40989868 5.04858398 12.04272461 C4.53239502 11.19846924 4.01620605 10.35421387 3.484375 9.484375 C2.79939941 8.36627441 2.79939941 8.36627441 2.10058594 7.22558594 C0.91048772 4.81898981 0.4105482 2.64355826 0 0 Z " fill="#E46B3A" transform="translate(80,119)"/>
<path d="M0 0 C10.77006508 3.26365608 17.60469462 14.15328414 22.953125 23.36328125 C29.18155207 35.31915322 32.9960484 47.88518691 36 61 C36.15855469 60.16339844 36.31710938 59.32679688 36.48046875 58.46484375 C40.93899366 36.22148468 49.19018059 14.97077873 68 1 C68.66 1 69.32 1 70 1 C67.63355976 24.50119961 57.64176826 46.03910773 41.50390625 63.1875 C39.78714948 64.86399573 39.78714948 64.86399573 40 67 C37.36 67 34.72 67 32 67 C31.73316406 66.39929688 31.46632812 65.79859375 31.19140625 65.1796875 C29.96988631 62.94490675 28.83855501 61.78786135 26.9375 60.125 C10.98625363 44.57253479 4.49772878 21.130839 0 0 Z " fill="#DF5023" transform="translate(140,136)"/>
<path d="M0 0 C0.02483101 4.44742458 0.04292183 8.89481178 0.05493164 13.34228516 C0.05994162 14.85336002 0.06675144 16.36443009 0.07543945 17.87548828 C0.08765176 20.05502512 0.09326178 22.23449753 0.09765625 24.4140625 C0.10289307 25.7232666 0.10812988 27.0324707 0.11352539 28.38134766 C0.00964539 31.69255059 -0.41539361 34.74677095 -1 38 C-0.859748 39.50269996 -0.69520269 41.00344606 -0.5 42.5 C-0.47265625 44.84765625 -0.47265625 44.84765625 -1 47 C-2.98460846 48.83725934 -5.07921951 50.01848257 -7.42578125 51.359375 C-15.07258911 56.2329096 -20.11805873 64.30842223 -24.6875 71.9453125 C-25.120625 72.62335938 -25.55375 73.30140625 -26 74 C-26.33 74 -26.66 74 -27 74 C-27.08636719 72.69546875 -27.17273438 71.3909375 -27.26171875 70.046875 C-28.03707448 59.8982652 -29.10100529 51.11066777 -34 42 C-34.40089844 41.24847656 -34.80179688 40.49695313 -35.21484375 39.72265625 C-36.10347093 38.12565722 -37.0441438 36.55769159 -38 35 C-35.02341679 31.31372218 -32.02060479 27.650292 -29 24 C-28.34257812 23.20207031 -27.68515625 22.40414062 -27.0078125 21.58203125 C-21.91990242 15.61798728 -16.18579444 10.79421514 -10 6 C-9.20464844 5.37351562 -8.40929687 4.74703125 -7.58984375 4.1015625 C-2.28477113 0 -2.28477113 0 0 0 Z " fill="#F1A523" transform="translate(213,89)"/>
<path d="M0 0 C6.72229635 6.13588326 9.75350007 15.13901134 11 24 C11.27070313 25.66675781 11.27070313 25.66675781 11.546875 27.3671875 C12.64310406 36.45832853 11.24646773 42.39926202 7.5625 50.49609375 C4.09251574 58.27753346 2.538427 66.65629593 1 75 C0.67 75 0.34 75 0 75 C-0.14695313 74.12601562 -0.29390625 73.25203125 -0.4453125 72.3515625 C-3.45715826 55.53049018 -3.45715826 55.53049018 -10.21875 40.0078125 C-11.54856476 36.59018856 -10.86504007 33.12101161 -10.4375 29.5625 C-10.34452637 28.76352295 -10.25155273 27.9645459 -10.15576172 27.14135742 C-8.84303775 17.25434813 -5.2909484 8.42632523 0 0 Z " fill="#E67817" transform="translate(175,125)"/>
<path d="M0 0 C-2.36644024 23.50119961 -12.35823174 45.03910773 -28.49609375 62.1875 C-30.21285052 63.86399573 -30.21285052 63.86399573 -30 66 C-31.98 66 -33.96 66 -36 66 C-35.01 65.01 -35.01 65.01 -34 64 C-33.72109816 61.90866226 -33.72109816 61.90866226 -33.6875 59.4375 C-31.96368703 37.43015442 -20.46187052 16.0429227 -4.1015625 1.58203125 C-2 0 -2 0 0 0 Z " fill="#DC4023" transform="translate(210,137)"/>
<path d="M0 0 C4.27350258 1.9637187 7.24248539 5.70385318 9 10 C9.70825891 14.71298212 9.4926291 18.03298733 7.3125 22.3125 C3.2615873 27.02031746 0.00695597 29.77305993 -6.3125 30.25 C-11.77674495 29.87954272 -15.21883867 28.12982443 -18.8125 24.0625 C-21.72916667 19.97916667 -21.72916667 19.97916667 -22 17 C-22.103125 15.88625 -22.20625 14.7725 -22.3125 13.625 C-21.85241219 8.28798145 -19.55941546 5.48877991 -15.7578125 1.859375 C-10.90574548 -1.4119903 -5.62880865 -0.82131044 0 0 Z " fill="#FCDD04" transform="translate(183,64)"/>
<path d="M0 0 C0 10.89 0 21.78 0 33 C1.32 33 2.64 33 4 33 C4 33.66 4 34.32 4 35 C1.36 35.33 -1.28 35.66 -4 36 C-4.33 35.34 -4.66 34.68 -5 34 C-5.99 34.66 -6.98 35.32 -8 36 C-10.875 36.5 -10.875 36.5 -14 36 C-17.26037727 33.30664487 -18.68691538 31.70699179 -19.44921875 27.55078125 C-19.63306639 23.30960639 -19.4137301 20.7092516 -17.25 17 C-12.80650237 13.05022433 -9.9804534 12.76998256 -4 13 C-4 9.7 -4 6.4 -4 3 C-4.99 2.67 -5.98 2.34 -7 2 C-1.125 0 -1.125 0 0 0 Z " fill="#E0613E" transform="translate(178,215)"/>
<path d="M0 0 C2.12605709 -0.00965512 4.2511234 -0.04075726 6.37695312 -0.07226562 C16.23728457 -0.14576727 25.40789677 1.0979873 35.02539062 3.24023438 C35.02539062 3.90023437 35.02539062 4.56023437 35.02539062 5.24023438 C26.97627555 7.80910089 18.99492853 8.39339994 10.58007812 8.44335938 C9.42066208 8.45190948 9.42066208 8.45190948 8.23782349 8.46063232 C6.61266413 8.47000561 4.98748643 8.4765854 3.36230469 8.48046875 C0.92672983 8.4901299 -1.50798313 8.52120847 -3.94335938 8.55273438 C-14.00988461 8.6186539 -23.18478578 7.66166808 -32.97460938 5.24023438 C-32.97460938 4.58023438 -32.97460938 3.92023438 -32.97460938 3.24023438 C-21.98982433 0.58262509 -11.28591148 0.03080777 0 0 Z " fill="#FBDD09" transform="translate(240.974609375,211.759765625)"/>
<path d="M0 0 C2.93423195 1.79646854 4.47205355 2.9441071 6 6 C6.41948626 9.3858534 6.49414522 12.62068431 6 16 C3.5625 19.0625 3.5625 19.0625 1 21 C0.67 21.33 0.34 21.66 0 22 C-4.87461149 22.55065056 -8.78253367 22.72054129 -13.0625 20.1875 C-16.32071484 16.50887034 -16.3312354 12.92570658 -16.29296875 8.2265625 C-15.85946619 4.93194303 -14.37450458 3.23482784 -12 1 C-8.30274625 -0.84862688 -4.03538558 -0.47587094 0 0 Z " fill="#F6E7E2" transform="translate(296,212)"/>
<path d="M0 0 C0.33 5.28 0.66 10.56 1 16 C2.65 15.01 4.3 14.02 6 13 C9.75 13.1875 9.75 13.1875 13 14 C14.1482685 16.296537 14.11561175 17.58313167 14.09765625 20.1328125 C14.09443359 20.93847656 14.09121094 21.74414062 14.08789062 22.57421875 C14.07951172 23.41597656 14.07113281 24.25773437 14.0625 25.125 C14.05798828 25.97449219 14.05347656 26.82398438 14.04882812 27.69921875 C14.03702874 29.79950909 14.01909306 31.8997633 14 34 C15.32 34.33 16.64 34.66 18 35 C14.7 35 11.4 35 8 35 C8.33 34.34 8.66 33.68 9 33 C9.07181821 30.28239892 9.09299506 27.59140612 9.0625 24.875 C9.05798828 24.12089844 9.05347656 23.36679688 9.04882812 22.58984375 C9.03703499 20.72652873 9.01909942 18.86325445 9 17 C4.65815798 17.18464366 4.65815798 17.18464366 1 19 C0.76346477 21.52596259 0.57826308 24.03107207 0.4375 26.5625 C0.39431641 27.27341797 0.35113281 27.98433594 0.30664062 28.71679688 C0.20028223 30.47761912 0.09961154 32.2387832 0 34 C0.99 34.33 1.98 34.66 3 35 C-0.3 35 -3.6 35 -7 35 C-6.34 34.34 -5.68 33.68 -5 33 C-4.62677573 29.89243985 -4.62677573 29.89243985 -4.5859375 26.2421875 C-4.56657135 25.57913605 -4.5472052 24.91608459 -4.5272522 24.23294067 C-4.46744046 22.11375823 -4.42106612 19.9945215 -4.375 17.875 C-4.33682155 16.43877831 -4.29776989 15.00257955 -4.2578125 13.56640625 C-4.16173875 10.04448064 -4.07771358 6.52238392 -4 3 C-4.99 2.67 -5.98 2.34 -7 2 C-1.125 0 -1.125 0 0 0 Z " fill="#DF5833" transform="translate(191,215)"/>
<path d="M0 0 C-0.33 2.64 -0.66 5.28 -1 8 C-1.66 8 -2.32 8 -3 8 C-3.33 6.35 -3.66 4.7 -4 3 C-8.00254456 2.90818866 -8.00254456 2.90818866 -12 3 C-13.22514289 4.03876234 -13.22514289 4.03876234 -13.4375 6.25 C-12.89469293 9.66193014 -11.49176743 10.70427911 -8.796875 12.73828125 C-7.90742187 13.36283203 -7.90742187 13.36283203 -7 14 C-6.36578125 14.44730469 -5.7315625 14.89460937 -5.078125 15.35546875 C-4.45421875 15.79503906 -3.8303125 16.23460937 -3.1875 16.6875 C0 19 0 19 1 21 C1.375 23.8125 1.375 23.8125 1 27 C-1.4375 29.8125 -1.4375 29.8125 -4 32 C-4.495 32.495 -4.495 32.495 -5 33 C-9.3004614 33.46203304 -13.01431973 33.38220255 -17.0625 31.8125 C-19 30 -19 30 -19.3125 27.3125 C-19.209375 26.549375 -19.10625 25.78625 -19 25 C-18.01 24.67 -17.02 24.34 -16 24 C-15.01 25.98 -14.02 27.96 -13 30 C-10.03 30 -7.06 30 -4 30 C-3.58228196 26.66799815 -3.58228196 26.66799815 -4 23 C-6.01211967 20.76997412 -6.01211967 20.76997412 -9 19 C-10.42451918 17.96909796 -11.8408408 16.92680048 -13.25 15.875 C-14.27867188 15.12863281 -14.27867188 15.12863281 -15.328125 14.3671875 C-17.70992364 12.41945497 -17.96687072 11.24846958 -18.375 8.1875 C-18 5 -18 5 -16.3125 2.125 C-11.16226724 -1.1789229 -5.95585939 -0.39240655 0 0 Z " fill="#E0603C" transform="translate(97,218)"/>
<path d="M0 0 C0.99 0.66 1.98 1.32 3 2 C3.34057617 3.87939453 3.34057617 3.87939453 3.29296875 6.1328125 C3.28330078 6.93847656 3.27363281 7.74414062 3.26367188 8.57421875 C3.23853516 9.41597656 3.21339844 10.25773438 3.1875 11.125 C3.16719727 12.39923828 3.16719727 12.39923828 3.14648438 13.69921875 C3.11108219 15.79974837 3.05727401 17.89995293 3 20 C4.32 20.33 5.64 20.66 7 21 C6.34 21.66 5.68 22.32 5 23 C2.625 22.625 2.625 22.625 0 22 C-3.87264248 21.85397444 -3.87264248 21.85397444 -7.0625 22.6875 C-10 23 -10 23 -11.875 21.875 C-13 20 -13 20 -13.6875 17.625 C-12.69210041 13.82438339 -10.4002133 12.87975801 -7.140625 10.91796875 C-5 10 -5 10 -1 10 C-1.33 7.69 -1.66 5.38 -2 3 C-5.34373475 3.55728913 -8.03312999 4.35173889 -11 6 C-11 4.68 -11 3.36 -11 2 C-7.3586453 -0.33046701 -4.2475253 -0.30891093 0 0 Z " fill="#E0633F" transform="translate(246,228)"/>
<path d="M0 0 C0.99 0.66 1.98 1.32 3 2 C3.34057617 3.87939453 3.34057617 3.87939453 3.29296875 6.1328125 C3.28330078 6.93847656 3.27363281 7.74414062 3.26367188 8.57421875 C3.23853516 9.41597656 3.21339844 10.25773438 3.1875 11.125 C3.16719727 12.39923828 3.16719727 12.39923828 3.14648438 13.69921875 C3.11108219 15.79974837 3.05727401 17.89995293 3 20 C4.32 20.33 5.64 20.66 7 21 C6.34 21.66 5.68 22.32 5 23 C2.375 22.625 2.375 22.625 0 22 C0 21.01 0 20.02 0 19 C-1.3303125 20.0209375 -1.3303125 20.0209375 -2.6875 21.0625 C-6 23 -6 23 -8.75 22.875 C-11 22 -11 22 -13 20 C-13.0625 17.125 -13.0625 17.125 -12 14 C-8.4575958 10.95835451 -5.67261527 10 -1 10 C-1.33 7.69 -1.66 5.38 -2 3 C-5.34373475 3.55728913 -8.03312999 4.35173889 -11 6 C-11 4.68 -11 3.36 -11 2 C-7.3586453 -0.33046701 -4.2475253 -0.30891093 0 0 Z " fill="#DF6C4C" transform="translate(149,228)"/>
<path d="M0 0 C1.98 0 3.96 0 6 0 C6.67413211 1.91405367 7.3390332 3.83136026 8 5.75 C8.37125 6.81734375 8.7425 7.8846875 9.125 8.984375 C10 12 10 12 10 16 C10.66 16 11.32 16 12 16 C12.12375 15.2575 12.2475 14.515 12.375 13.75 C13 11 13 11 14.125 9 C15.29753483 6.31992038 14.79975449 4.76278824 14 2 C13.67 1.34 13.34 0.68 13 0 C15.31 0 17.62 0 20 0 C20.6700834 2.12392506 21.33596797 4.24917524 22 6.375 C22.37125 7.55835938 22.7425 8.74171875 23.125 9.9609375 C24 13 24 13 24 15 C24.66 15 25.32 15 26 15 C26.53532823 13.44240657 27.05265378 11.87861955 27.5625 10.3125 C27.85253906 9.44238281 28.14257812 8.57226562 28.44140625 7.67578125 C29.05141961 4.75368926 28.77703633 2.85599447 28 0 C29.98 0 31.96 0 34 0 C31.19827683 7.4291594 28.33402609 14.79179833 25 22 C24.01 21.67 23.02 21.34 22 21 C20.83203125 18.56640625 20.83203125 18.56640625 19.8125 15.5625 C19.46832031 14.57378906 19.12414062 13.58507812 18.76953125 12.56640625 C18 10 18 10 18 8 C17.34 8 16.68 8 16 8 C15.70996094 9.03060547 15.70996094 9.03060547 15.4140625 10.08203125 C15.15367188 10.98308594 14.89328125 11.88414062 14.625 12.8125 C14.36976562 13.70582031 14.11453125 14.59914062 13.8515625 15.51953125 C13 18 13 18 11 21 C10.34 21 9.68 21 9 21 C8.76289307 20.43490723 8.52578613 19.86981445 8.28149414 19.28759766 C7.20919546 16.73310421 6.13586047 14.17904747 5.0625 11.625 C4.68931641 10.73554688 4.31613281 9.84609375 3.93164062 8.9296875 C3.57392578 8.07890625 3.21621094 7.228125 2.84765625 6.3515625 C2.51773682 5.56604004 2.18781738 4.78051758 1.84790039 3.97119141 C1.27098397 2.62998117 0.65294371 1.30588742 0 0 Z " fill="#DF5F39" transform="translate(100,229)"/>
<path d="M0 0 C1 1 1 1 1.09765625 4.59765625 C1.0909822 6.08596867 1.07902183 7.57426432 1.0625 9.0625 C1.05798828 9.82111328 1.05347656 10.57972656 1.04882812 11.36132812 C1.0370068 13.24091871 1.01907078 15.12046899 1 17 C-1.86120256 18.43060128 -3.84010585 18.38692581 -7 18 C-9.8051498 15.10134521 -10.2381996 12.33350131 -10.4375 8.4375 C-10.31723465 5.30014305 -10.09889766 4.15595401 -8.375 1.4375 C-5.37703045 -0.37706052 -3.44683871 -0.38298208 0 0 Z " fill="#FDFAF9" transform="translate(173,230)"/>
<path d="M0 0 C2.93423195 1.79646854 4.47205355 2.9441071 6 6 C6.41948626 9.3858534 6.49414522 12.62068431 6 16 C3.5625 19.0625 3.5625 19.0625 1 21 C0.67 21.33 0.34 21.66 0 22 C-4.87461149 22.55065056 -8.78253367 22.72054129 -13.0625 20.1875 C-16.32071484 16.50887034 -16.3312354 12.92570658 -16.29296875 8.2265625 C-15.85946619 4.93194303 -14.37450458 3.23482784 -12 1 C-8.30274625 -0.84862688 -4.03538558 -0.47587094 0 0 Z M-13 7 C-13.70862744 9.83450976 -13.70862744 12.16549024 -13 15 C-10.56226471 18.44150865 -9.14182881 19.762119 -5 20.625 C-0.85817119 19.762119 0.56226471 18.44150865 3 15 C3.70862744 12.16549024 3.70862744 9.83450976 3 7 C0.56226471 3.55849135 -0.85817119 2.237881 -5 1.375 C-9.14182881 2.237881 -10.56226471 3.55849135 -13 7 Z " fill="#DF592F" transform="translate(296,212)"/>
<path d="M0 0 C1.98 0 3.96 0 6 0 C6.34933594 0.92683594 6.69867188 1.85367188 7.05859375 2.80859375 C7.51363281 4.00613281 7.96867188 5.20367187 8.4375 6.4375 C9.11619141 8.22994141 9.11619141 8.22994141 9.80859375 10.05859375 C10.7144826 12.84445723 10.7144826 12.84445723 12 14 C15.21986044 8.61779682 15.21986044 8.61779682 15.75 2.5 C15.5025 1.675 15.255 0.85 15 0 C16.98 0 18.96 0 21 0 C19.44842508 3.6713831 17.88176807 7.33614859 16.3125 11 C15.87744141 12.02996094 15.44238281 13.05992187 14.99414062 14.12109375 C9.61006592 26.64405269 9.61006592 26.64405269 6 31 C3.1875 32 3.1875 32 1 32 C1 31.01 1 30.02 1 29 C1.78375 28.731875 2.5675 28.46375 3.375 28.1875 C6.28114923 27.15185568 6.28114923 27.15185568 8 24 C8 15.44689901 3.75992232 7.51984464 0 0 Z " fill="#E06540" transform="translate(210,229)"/>
<path d="M0 0 C1.98 0 3.96 0 6 0 C6.34933594 0.92683594 6.69867188 1.85367188 7.05859375 2.80859375 C7.51363281 4.00613281 7.96867187 5.20367187 8.4375 6.4375 C9.11619141 8.22994141 9.11619141 8.22994141 9.80859375 10.05859375 C10.7144826 12.84445723 10.7144826 12.84445723 12 14 C15.09052705 8.25043691 15.09052705 8.25043691 15.75 1.9375 C15.5025 1.298125 15.255 0.65875 15 0 C16.98 0 18.96 0 21 0 C19.44842508 3.6713831 17.88176807 7.33614859 16.3125 11 C15.87744141 12.02996094 15.44238281 13.05992187 14.99414062 14.12109375 C9.61006592 26.64405269 9.61006592 26.64405269 6 31 C3.1875 32 3.1875 32 1 32 C1 31.01 1 30.02 1 29 C1.78375 28.7525 2.5675 28.505 3.375 28.25 C6.0214613 27.21967938 6.0214613 27.21967938 7.375 25.3125 C8.94719595 19.49537498 6.35065697 13.94822509 4 8.6875 C3.72671875 8.06810547 3.4534375 7.44871094 3.171875 6.81054688 C2.15640355 4.51826942 1.12131346 2.24262693 0 0 Z " fill="#E0613C" transform="translate(254,229)"/>
<path d="M0 0 C0.33 0 0.66 0 1 0 C1.33 4.62 1.66 9.24 2 14 C3.65 13.01 5.3 12.02 7 11 C10.75 11.1875 10.75 11.1875 14 12 C15.1482685 14.296537 15.11561175 15.58313167 15.09765625 18.1328125 C15.09443359 18.93847656 15.09121094 19.74414062 15.08789062 20.57421875 C15.07951172 21.41597656 15.07113281 22.25773437 15.0625 23.125 C15.05798828 23.97449219 15.05347656 24.82398438 15.04882812 25.69921875 C15.03702874 27.79950909 15.01909306 29.8997633 15 32 C16.32 32.33 17.64 32.66 19 33 C15.7 33 12.4 33 9 33 C9.33 32.34 9.66 31.68 10 31 C10.07181821 28.28239892 10.09299506 25.59140612 10.0625 22.875 C10.05798828 22.12089844 10.05347656 21.36679688 10.04882812 20.58984375 C10.03703499 18.72652873 10.01909942 16.86325445 10 15 C8.906875 15.165 7.81375 15.33 6.6875 15.5 C3 16 3 16 0 16 C0 10.72 0 5.44 0 0 Z " fill="#E07051" transform="translate(190,217)"/>
<path d="M0 0 C0.99 0.66 1.98 1.32 3 2 C2.25 8.75 2.25 8.75 0 11 C-0.144375 12.155 -0.28875 13.31 -0.4375 14.5 C-0.623125 15.655 -0.80875 16.81 -1 18 C-4 20 -4 20 -6.6875 19.625 C-7.8321875 19.315625 -7.8321875 19.315625 -9 19 C-8.63692621 16.31325398 -8.33095772 14.44127696 -6.6875 12.25 C-4.80095268 10.85255754 -3.29800696 10.3962081 -1 10 C-1.33 7.69 -1.66 5.38 -2 3 C-5.34373475 3.55728913 -8.03312999 4.35173889 -11 6 C-11 4.68 -11 3.36 -11 2 C-7.3586453 -0.33046701 -4.2475253 -0.30891093 0 0 Z " fill="#E06846" transform="translate(246,228)"/>
<path d="M0 0 C6.15234375 -0.09765625 6.15234375 -0.09765625 8 0 C9 1 9 1 9.125 3.4375 C9 6 9 6 8 8 C8.39938767 10.09821215 8.39938767 10.09821215 9 12 C5.125 10.25 5.125 10.25 4 8 C3.67 9.32 3.34 10.64 3 12 C2.01 12 1.02 12 0 12 C0 8.04 0 4.08 0 0 Z " fill="#DE5F37" transform="translate(286,217)"/>
<path d="M0 0 C3.16025526 1.80586015 4.57721965 2.82922364 5.8125 6.25 C5.874375 6.8275 5.93625 7.405 6 8 C5.34 8 4.68 8 4 8 C4 9.65 4 11.3 4 13 C3.67 13 3.34 13 3 13 C2.57682292 10.98177083 2.15364583 8.96354167 1.73046875 6.9453125 C1.07691162 4.62953451 1.07691162 4.62953451 -2 3 C-5.59247257 2.54138648 -7.31642691 2.51965134 -10.3125 4.625 C-12.31233339 7.43958033 -12.69029053 9.59319587 -13 13 C-15.83870968 8.74193548 -15.83870968 8.74193548 -16 6 C-11.6258394 -0.48582433 -7.47319004 -0.85777181 0 0 Z " fill="#DF5B33" transform="translate(296,212)"/>
<path d="M0 0 C2.34770643 3.52155964 2.37669614 5.50771843 2.625 9.6875 C2.69976562 10.86699219 2.77453125 12.04648438 2.8515625 13.26171875 C2.90054688 14.16535156 2.94953125 15.06898438 3 16 C4.65 16 6.3 16 8 16 C8 16.66 8 17.32 8 18 C4.04 18.495 4.04 18.495 0 19 C-0.33 18.34 -0.66 17.68 -1 17 C-1.99 17.66 -2.98 18.32 -4 19 C-7.1875 19.125 -7.1875 19.125 -10 19 C-10 18.34 -10 17.68 -10 17 C-6.7 16.34 -3.4 15.68 0 15 C0 10.05 0 5.1 0 0 Z " fill="#E06746" transform="translate(174,232)"/>
<path d="M0 0 C-0.825 0.4125 -1.65 0.825 -2.5 1.25 C-3.325 1.8275 -4.15 2.405 -5 3 C-5 4.32 -5 5.64 -5 7 C-3.02 7 -1.04 7 1 7 C-0.6875 9.0625 -0.6875 9.0625 -3 11 C-6.39154295 10.83849795 -7.58296757 10.41703243 -10 8 C-9.9375 5.0625 -9.9375 5.0625 -9 2 C-5.85005089 -0.63914655 -3.88979905 -1.58473295 0 0 Z " fill="#DF5D38" transform="translate(146,240)"/>
<path d="M0 0 C0.33 0 0.66 0 1 0 C1 5.61 1 11.22 1 17 C2.32 17.33 3.64 17.66 5 18 C1.7 18 -1.6 18 -5 18 C-4.01 16.515 -4.01 16.515 -3 15 C-2.62370446 11.64327271 -2.49419845 8.30740018 -2.34375 4.93359375 C-2 2 -2 2 0 0 Z " fill="#DF5022" transform="translate(204,232)"/>
<path d="M0 0 C0 10.89 0 21.78 0 33 C-0.33 33 -0.66 33 -1 33 C-1.33 25.41 -1.66 17.82 -2 10 C-2.33 10 -2.66 10 -3 10 C-3.103125 9.05125 -3.20625 8.1025 -3.3125 7.125 C-3.68539295 3.70892499 -3.68539295 3.70892499 -7 2 C-1.125 0 -1.125 0 0 0 Z " fill="#DB4F1C" transform="translate(178,215)"/>
<path d="M0 0 C0.1875 2.875 0.1875 2.875 0 6 C-3 8 -3 8 -5.6875 7.625 C-6.450625 7.41875 -7.21375 7.2125 -8 7 C-7.6875 4.625 -7.6875 4.625 -7 2 C-4 0 -4 0 0 0 Z " fill="#FAF4F1" transform="translate(245,240)"/>
<path d="M0 0 C0.1875 2.875 0.1875 2.875 0 6 C-3 8 -3 8 -5.6875 7.625 C-6.450625 7.41875 -7.21375 7.2125 -8 7 C-7.6875 4.625 -7.6875 4.625 -7 2 C-4 0 -4 0 0 0 Z " fill="#FAF3F0" transform="translate(148,240)"/>
<path d="M0 0 C0.66 0 1.32 0 2 0 C2.99 1.98 3.98 3.96 5 6 C10.08303686 6.11320856 10.08303686 6.11320856 15 5 C14.34 6.32 13.68 7.64 13 9 C8.66130162 9.25521755 5.03320318 9.4006298 0.9375 7.8125 C-1 6 -1 6 -1.375 3.375 C-1 1 -1 1 0 0 Z " fill="#E06943" transform="translate(79,242)"/>
<path d="M0 0 C0.99 0 1.98 0 3 0 C3.6708712 1.6232687 4.33657029 3.24867578 5 4.875 C5.556875 6.23238281 5.556875 6.23238281 6.125 7.6171875 C7 10 7 10 7 12 C6.01 12.33 5.02 12.66 4 13 C1.78631706 10.78631706 0.13447079 9.06983375 -0.265625 5.88671875 C-0.25166986 3.92253213 -0.13286356 1.9597375 0 0 Z " fill="#E05832" transform="translate(159,237)"/>
<path d="M0 0 C0.33 0 0.66 0 1 0 C1 4.95 1 9.9 1 15 C2.32 15.33 3.64 15.66 5 16 C4.34 16.66 3.68 17.32 3 18 C0.375 17.625 0.375 17.625 -2 17 C-2 16.01 -2 15.02 -2 14 C-2.66 13.67 -3.32 13.34 -4 13 C-3.34 11.02 -2.68 9.04 -2 7 C-1.67 7 -1.34 7 -1 7 C-0.67 4.69 -0.34 2.38 0 0 Z " fill="#DE572A" transform="translate(151,233)"/>
<path d="M0 0 C0.66 0.33 1.32 0.66 2 1 C2.125 8.75 2.125 8.75 1 11 C-0.9375 10.1875 -0.9375 10.1875 -3 9 C-3.33 8.01 -3.66 7.02 -4 6 C-2.0625 2.8125 -2.0625 2.8125 0 0 Z " fill="#F9F3F0" transform="translate(297,218)"/>
<path d="M0 0 C2.375 2 2.375 2 4 4 C3.01 5.32 2.02 6.64 1 8 C0.67 6.68 0.34 5.36 0 4 C-1.27875 3.979375 -2.5575 3.95875 -3.875 3.9375 C-4.59429687 3.92589844 -5.31359375 3.91429687 -6.0546875 3.90234375 C-8.08185404 3.87350758 -8.08185404 3.87350758 -10 5 C-7.70638175 -0.07872613 -5.55185801 -0.5551858 0 0 Z " fill="#F4DFD8" transform="translate(294,214)"/>
<path d="M0 0 C0.33 0 0.66 0 1 0 C1 4.95 1 9.9 1 15 C2.32 15.33 3.64 15.66 5 16 C4.34 16.66 3.68 17.32 3 18 C1.35 17.67 -0.3 17.34 -2 17 C-1.34 11.39 -0.68 5.78 0 0 Z " fill="#DE582B" transform="translate(248,233)"/>
<path d="M0 0 C0.66 0 1.32 0 2 0 C1.52575506 4.97957189 0.22353026 8.14967219 -3 12 C-5.75 12.875 -5.75 12.875 -8 13 C-8 12.01 -8 11.02 -8 10 C-7.236875 9.835 -6.47375 9.67 -5.6875 9.5 C-1.75515165 7.30520092 -1.19503462 4.1777633 0 0 Z " fill="#DF582C" transform="translate(263,248)"/>
<path d="M0 0 C3.88862987 1.26117725 5.89375599 2.45264167 8 6 C8 6.66 8 7.32 8 8 C7.34 8 6.68 8 6 8 C6 9.65 6 11.3 6 13 C5.67 13 5.34 13 5 13 C4.57682292 10.98177083 4.15364583 8.96354167 3.73046875 6.9453125 C3.07691162 4.62953451 3.07691162 4.62953451 0 3 C0 2.01 0 1.02 0 0 Z " fill="#DF6643" transform="translate(294,212)"/>
<path d="M0 0 C0.66 0.66 1.32 1.32 2 2 C1.75062561 6.48873893 -0.19420372 9.57069344 -3 13 C-5.75 13.875 -5.75 13.875 -8 14 C-8 13.01 -8 12.02 -8 11 C-7.21625 10.731875 -6.4325 10.46375 -5.625 10.1875 C-2.71885077 9.15185568 -2.71885077 9.15185568 -1 6 C-0.60986284 4.0103005 -0.26797351 2.00980131 0 0 Z " fill="#DE5528" transform="translate(219,247)"/>
<path d="M0 0 C0 3.63 0 7.26 0 11 C0.99 11.33 1.98 11.66 3 12 C2.01 12.33 1.02 12.66 0 13 C-1.90401138 11.09598862 -2.93520439 9.66574314 -3.19921875 6.953125 C-3.1886578 4.96766727 -3.09915043 2.9830086 -3 1 C-1 0 -1 0 0 0 Z " fill="#F9EEEA" transform="translate(286,218)"/>
<path d="M0 0 C0.66 0.66 1.32 1.32 2 2 C1.525625 2.350625 1.05125 2.70125 0.5625 3.0625 C-1.67873825 5.84163543 -1.67117658 8.5144717 -2 12 C-2.33 10.68 -2.66 9.36 -3 8 C-3.99 8 -4.98 8 -6 8 C-4.73058503 4.08597051 -3.48832306 2.20927127 0 0 Z " fill="#DF6A48" transform="translate(165,229)"/>
<path d="M0 0 C1.32 0 2.64 0 4 0 C4.144375 0.9075 4.28875 1.815 4.4375 2.75 C4.86409473 5.21476956 5.35074221 7.58847107 6 10 C3.54896452 9.01958581 2.23241214 8.3486182 0.75 6.125 C0 4 0 4 0 0 Z " fill="#E89379" transform="translate(289,219)"/>
<path d="M0 0 C3.63 0 7.26 0 11 0 C10.67 2.64 10.34 5.28 10 8 C9.34 8 8.68 8 8 8 C7.67 6.35 7.34 4.7 7 3 C4.69 2.34 2.38 1.68 0 1 C0 0.67 0 0.34 0 0 Z " fill="#DE5A30" transform="translate(86,218)"/>
<path d="M0 0 C0.66 0 1.32 0 2 0 C2 3.3 2 6.6 2 10 C1.01 10.33 0.02 10.66 -1 11 C-1 9.35 -1 7.7 -1 6 C-2.32 5.34 -3.64 4.68 -5 4 C-3.35 4 -1.7 4 0 4 C0 2.68 0 1.36 0 0 Z " fill="#E16D50" transform="translate(149,234)"/>
<path d="M0 0 C1.98 0 3.96 0 6 0 C7.125 4.75 7.125 4.75 6 7 C5.01 7 4.02 7 3 7 C2.01 4.69 1.02 2.38 0 0 Z " fill="#DF542A" transform="translate(210,229)"/>
<path d="M0 0 C0.33 1.32 0.66 2.64 1 4 C0.34 4 -0.32 4 -1 4 C-1.33 3.34 -1.66 2.68 -2 2 C-2.99 2.66 -3.98 3.32 -5 4 C-8.1875 4.125 -8.1875 4.125 -11 4 C-11 3.34 -11 2.68 -11 2 C-3.375 0 -3.375 0 0 0 Z " fill="#E07250" transform="translate(175,247)"/>
<path d="M0 0 C1.98 0 3.96 0 6 0 C4.35 3.63 2.7 7.26 1 11 C-0.16472754 7.50581737 0.3917266 5.5736062 1 2 C0.67 1.34 0.34 0.68 0 0 Z " fill="#DD582B" transform="translate(269,229)"/>
<path d="M0 0 C1.98 0 3.96 0 6 0 C5.25 4.75 5.25 4.75 3 7 C2.01 4.69 1.02 2.38 0 0 Z " fill="#DF5228" transform="translate(100,229)"/>
<path d="M0 0 C1.27351308 2.54702616 0.80191925 3.4282945 0.0625 6.125 C-0.13214844 6.84945312 -0.32679688 7.57390625 -0.52734375 8.3203125 C-0.76130859 9.15175781 -0.76130859 9.15175781 -1 10 C-1.33 10 -1.66 10 -2 10 C-2.103125 9.05125 -2.20625 8.1025 -2.3125 7.125 C-2.68539295 3.70892499 -2.68539295 3.70892499 -6 2 C-4.02 1.34 -2.04 0.68 0 0 Z " fill="#DF532C" transform="translate(177,215)"/>
<path d="M0 0 C1.98 0 3.96 0 6 0 C4.02 4.455 4.02 4.455 2 9 C0.9986012 5.99580359 0.48578543 3.12290635 0 0 Z " fill="#DD5628" transform="translate(225,229)"/>
<path d="M0 0 C1.98 0 3.96 0 6 0 C5.625 2.4375 5.625 2.4375 5 5 C4.01 5.495 4.01 5.495 3 6 C2.01 4.02 1.02 2.04 0 0 Z " fill="#DF4F24" transform="translate(254,229)"/>
<path d="M0 0 C1.98 0 3.96 0 6 0 C5.01 2.31 4.02 4.62 3 7 C2.67 7 2.34 7 2 7 C1.34 4.69 0.68 2.38 0 0 Z " fill="#DD5729" transform="translate(128,229)"/>
<path d="M0 0 C-1.28965176 1.37562854 -2.62689293 2.70766393 -4 4 C-4.66 4 -5.32 4 -6 4 C-6 2.68 -6 1.36 -6 0 C-3.50907189 -1.24546405 -2.58919267 -0.7767578 0 0 Z " fill="#DE5E35" transform="translate(144,230)"/>
<path d="M0 0 C0.598125 0.20625 1.19625 0.4125 1.8125 0.625 C0.636875 1.24375 0.636875 1.24375 -0.5625 1.875 C-3.24641656 3.6642777 -4.06848949 4.67488139 -5.1875 7.625 C-5.375 4.75 -5.375 4.75 -5.1875 1.625 C-2.1875 -0.375 -2.1875 -0.375 0 0 Z " fill="#DD562B" transform="translate(241.1875,239.375)"/>
<path d="M0 0 C0.598125 0.20625 1.19625 0.4125 1.8125 0.625 C0.636875 1.24375 0.636875 1.24375 -0.5625 1.875 C-3.24641656 3.6642777 -4.06848949 4.67488139 -5.1875 7.625 C-5.375 4.75 -5.375 4.75 -5.1875 1.625 C-2.1875 -0.375 -2.1875 -0.375 0 0 Z " fill="#DE5526" transform="translate(144.1875,239.375)"/>
</svg>
